# Blender v2.76 (sub 0) OBJ File: 'cylinder.blend'
# www.blender.org
o Cylinder_Cylinder.003
v 0.000000 0.000000 -0.500000
v 0.000000 1.000000 -0.500000
v 0.111260 0.000000 -0.487464
v 0.111260 1.000000 -0.487464
v 0.216942 0.000000 -0.450484
v 0.216942 1.000000 -0.450484
v 0.311745 0.000000 -0.390916
v 0.311745 1.000000 -0.390916
v 0.390916 0.000000 -0.311745
v 0.390916 1.000000 -0.311745
v 0.450484 0.000000 -0.216942
v 0.450484 1.000000 -0.216942
v 0.487464 0.000000 -0.111260
v 0.487464 1.000000 -0.111260
v 0.500000 0.000000 -0.000000
v 0.500000 1.000000 -0.000000
v 0.487464 0.000000 0.111260
v 0.487464 1.000000 0.111260
v 0.450484 0.000000 0.216942
v 0.450484 1.000000 0.216942
v 0.390916 0.000000 0.311745
v 0.390916 1.000000 0.311745
v 0.311745 0.000000 0.390916
v 0.311745 1.000000 0.390916
v 0.216942 0.000000 0.450484
v 0.216942 1.000000 0.450484
v 0.111260 0.000000 0.487464
v 0.111260 1.000000 0.487464
v -0.000000 0.000000 0.500000
v -0.000000 1.000000 0.500000
v -0.111261 0.000000 0.487464
v -0.111261 1.000000 0.487464
v -0.216942 0.000000 0.450484
v -0.216942 1.000000 0.450484
v -0.311745 0.000000 0.390916
v -0.311745 1.000000 0.390916
v -0.390916 0.000000 0.311745
v -0.390916 1.000000 0.311745
v -0.450485 0.000000 0.216942
v -0.450485 1.000000 0.216942
v -0.487464 0.000000 0.111260
v -0.487464 1.000000 0.111260
v -0.500000 0.000000 -0.000000
v -0.500000 1.000000 -0.000000
v -0.487464 0.000000 -0.111261
v -0.487464 1.000000 -0.111261
v -0.450484 0.000000 -0.216942
v -0.450484 1.000000 -0.216942
v -0.390915 0.000000 -0.311745
v -0.390915 1.000000 -0.311745
v -0.311744 0.000000 -0.390916
v -0.311744 1.000000 -0.390916
v -0.216941 0.000000 -0.450485
v -0.216941 1.000000 -0.450485
v -0.111260 0.000000 -0.487464
v -0.111260 1.000000 -0.487464
vn 0.112000 0.000000 -0.993700
vn 0.330300 0.000000 -0.943900
vn 0.532000 0.000000 -0.846700
vn 0.707100 0.000000 -0.707100
vn 0.846700 0.000000 -0.532000
vn 0.943900 0.000000 -0.330300
vn 0.993700 0.000000 -0.112000
vn 0.993700 0.000000 0.112000
vn 0.943900 0.000000 0.330300
vn 0.846700 0.000000 0.532000
vn 0.707100 0.000000 0.707100
vn 0.532000 0.000000 0.846700
vn 0.330300 0.000000 0.943900
vn 0.112000 0.000000 0.993700
vn -0.112000 0.000000 0.993700
vn -0.330300 0.000000 0.943900
vn -0.532000 0.000000 0.846700
vn -0.707100 0.000000 0.707100
vn -0.846700 0.000000 0.532000
vn -0.943900 0.000000 0.330300
vn -0.993700 0.000000 0.112000
vn -0.993700 0.000000 -0.112000
vn -0.943900 0.000000 -0.330300
vn -0.846700 0.000000 -0.532000
vn -0.707100 0.000000 -0.707100
vn -0.532000 0.000000 -0.846700
vn 0.000000 1.000000 0.000000
vn -0.112000 0.000000 -0.993700
vn -0.330300 0.000000 -0.943900
vn 0.000000 -1.000000 0.000000
s off
f 2//1 4//1 3//1
f 4//2 6//2 5//2
f 6//3 8//3 7//3
f 8//4 10//4 9//4
f 10//5 12//5 11//5
f 12//6 14//6 13//6
f 14//7 16//7 15//7
f 16//8 18//8 17//8
f 18//9 20//9 19//9
f 20//10 22//10 21//10
f 22//11 24//11 23//11
f 24//12 26//12 25//12
f 26//13 28//13 27//13
f 28//14 30//14 29//14
f 30//15 32//15 31//15
f 32//16 34//16 33//16
f 34//17 36//17 35//17
f 36//18 38//18 37//18
f 38//19 40//19 39//19
f 40//20 42//20 41//20
f 42//21 44//21 43//21
f 44//22 46//22 45//22
f 46//23 48//23 47//23
f 48//24 50//24 49//24
f 50//25 52//25 51//25
f 52//26 54//26 53//26
f 46//27 30//27 14//27
f 56//28 2//28 1//28
f 54//29 56//29 55//29
f 15//30 31//30 47//30
f 1//1 2//1 3//1
f 3//2 4//2 5//2
f 5//3 6//3 7//3
f 7//4 8//4 9//4
f 9//5 10//5 11//5
f 11//6 12//6 13//6
f 13//7 14//7 15//7
f 15//8 16//8 17//8
f 17//9 18//9 19//9
f 19//10 20//10 21//10
f 21//11 22//11 23//11
f 23//12 24//12 25//12
f 25//13 26//13 27//13
f 27//14 28//14 29//14
f 29//15 30//15 31//15
f 31//16 32//16 33//16
f 33//17 34//17 35//17
f 35//18 36//18 37//18
f 37//19 38//19 39//19
f 39//20 40//20 41//20
f 41//21 42//21 43//21
f 43//22 44//22 45//22
f 45//23 46//23 47//23
f 47//24 48//24 49//24
f 49//25 50//25 51//25
f 51//26 52//26 53//26
f 6//27 4//27 2//27
f 2//27 56//27 54//27
f 54//27 52//27 50//27
f 50//27 48//27 46//27
f 46//27 44//27 42//27
f 42//27 40//27 46//27
f 38//27 36//27 30//27
f 34//27 32//27 30//27
f 30//27 28//27 26//27
f 26//27 24//27 22//27
f 22//27 20//27 14//27
f 18//27 16//27 14//27
f 14//27 12//27 10//27
f 10//27 8//27 6//27
f 6//27 2//27 46//27
f 54//27 50//27 46//27
f 46//27 40//27 38//27
f 36//27 34//27 30//27
f 30//27 26//27 14//27
f 20//27 18//27 14//27
f 14//27 10//27 6//27
f 2//27 54//27 46//27
f 46//27 38//27 30//27
f 26//27 22//27 14//27
f 14//27 6//27 46//27
f 55//28 56//28 1//28
f 53//29 54//29 55//29
f 55//30 1//30 3//30
f 3//30 5//30 55//30
f 7//30 9//30 11//30
f 11//30 13//30 15//30
f 15//30 17//30 19//30
f 19//30 21//30 23//30
f 23//30 25//30 27//30
f 27//30 29//30 23//30
f 31//30 33//30 35//30
f 35//30 37//30 31//30
f 39//30 41//30 43//30
f 43//30 45//30 39//30
f 47//30 49//30 51//30
f 51//30 53//30 47//30
f 55//30 5//30 7//30
f 7//30 11//30 55//30
f 15//30 19//30 23//30
f 23//30 29//30 31//30
f 31//30 37//30 39//30
f 39//30 45//30 47//30
f 47//30 53//30 55//30
f 55//30 11//30 15//30
f 15//30 23//30 31//30
f 31//30 39//30 47//30
f 47//30 55//30 15//30
